P1
# CREATOR: GIMP PNM Filter Version 1.1
101 142
0000000000000000000000000000000000000000000000000000000000000000000000
0000000000000000000000000000000000000000000000000000000000000000000000
0010111111111111111010000000000000000000000000000000000000000000000000
0000000000000000000000000001011111111111111111111111111100000000000000
0000000000000000000000000000000000000000000000000000000111111111111111
1111111111111111111111000000000000000000000000000000000000000000000000
0000000000000111111111111111111111111111111111111111111100000000000000
0000000000000000000000000000000000000000011111111111111111111111111111
1111111111111111111000000000000000000000000000000000000000000000000000
1111111111111111111111111111111111111111111111111111000000000000000000
0000000000000000000000000000011111111111111111111111111111111111111111
1111111111111110000000000000000000000000000000000000000000011111111111
1111111111111111111111111111111111111111111111110000000000000000000000
0000000000000000001111111111111111111111111111111111111111111111111111
1111111111100000000000000000000000000000000000001111111111111111111111
1111111111111111111111111111111111111111111000000000000000000000000000
0000000111111111111111111111111111111111111111111111111111111111111111
1111100000000000000000000000000000000111111111111111111111111111111111
1111111111111111111111111111111111111100000000000000000000000000000111
1111111111111111111111111111111111111111111111111111111111111111111111
0000000000000000000000000001111111111111111111111111111111111111111111
1111111111111111111111111111111000000000000000000000000001111111111111
1111111111111111111111111111111111111111111111111111111111111111000000
0000000000000000011111111111111111111111111111111111111111111111111111
1111111111111111111111111000000000000000000000011111111111111111111111
1111111111111111111111111111111111111111111111111111111111000000000000
0000000111111111111111111111111111111111111111111111111111111111111111
1111111111111111111000000000000000000011111111111111111111111111111111
1111111111111111111111111111111111111111111111111110000000000000000011
1111111111111111111111111111111111111111111111111111111111111111111111
1111111111111000000000000000111111111111111111111111111111111111101000
0000000101111111111111111111111111111111111100000000000000111111111111
1111111111111111111111100000000000000000000111111111111111111111111111
1111110000000000000111111111111111111111111111111111000000000000000000
0000001111111111111111111111111111111100000000000111111111111111111111
1111111111100000000000000000000000000001111111111111111111111111111110
0000000000111111111111111111111111111111000000000000000000000000000000
0111111111111111111111111111111000000000111111111111111111111111111111
0000000000000000000000000000000000111111111111111111111111111100000000
0111111111111111111111111111110000000000000000000000000000000000001111
1111111111111111111111110000000111111111111111111111111111110000000000
0000000000000000000000000000111111111111111111111111111000000011111111
1111111111111111111100000000000000000000000000000000000000011111111111
1111111111111111100000011111111111111111111111111100000000000000000000
0000000000000000000001111111111111111111111111110000011111111111111111
1111111111000000000000000000000000000000000000000000011111111111111111
1111111110000011111111111111111111111111100000000000000000000000000000
0000000000000011111111111111111111111111100001111111111111111111111111
1000000000000000000000000000000000000000000000111111111111111111111111
1100001111111111111111111111111100000000000000000000000000000000000000
0000000111111111111111111111111110000111111111111111111111111100000000
0000000000000000000000000000000000000011111111111111111111111111000111
1111111111111111111111100000000000000000000000000000000000000000000000
1111111111111111111111111000111111111111111111111111100000000000000000
0000000000000000000000000000000111111111111111111111111100011111111111
1111111111111100000000000000000000000000000000000000000000000011111111
1111111111111111110011111111111111111111111110000000000000000000000000
0000000000000000000000011111111111111111111111110000000010111111111111
1111100000000000000000000000000000000000000000000000001111111111111111
1111111111000000000000000000001011110000000000000000000000000000000000
0000000000000001111111111111111111111111000000000000000000000000000000
0000000000000000000000000000000000000000000000111111111111111111111111
1100000000000000000000000000000000000000000000000000000000000000000000
0000000111111111111111111111111100000000000000000000000000000000000000
0000000000000000000000000000000000000111111111111111111111111110000000
0000000000000000000000000000000000000000000000000000000000000000000011
1111111111111111111111110000000000000000000000000000000000000000000000
0000000000000000000000000000011111111111111111111111111000000000000000
0000000000000000000000000000000000000000000000000000000000011111111111
1111111111111111000000000000000000000000000000000000000000000000000000
0000000000000000000011111111111111111111111111100000000000000000000000
0000000000000000000000000000000000000000000000000011111111111111111111
1111111000000000000000000000000000000000000000000000000000000000000000
0000000000111111111111111111111111111100000000000000000000000000000000
0000000000000000000000000000000000000000011111111111111111111111111110
0000000000000000000000000000000000000000000000000000000000000000000000
0111111111111111111111111111100000000000000000000000000000000000000000
0000000000000000000000000000000111111111111111111111111111110000000000
0000000000000000000000000000000000000000000000000000000000000111111111
1111111111111111111100000000000000000000000000000000000000000000000000
0000000000000000000011111111111111111111111111111110000000000000000000
0000000000000000000000000000000000000000000000000011111111111111111111
1111111111100000000000000000000000000000000000000000000000000000000000
0000000000111111111111111111111111111111110000000000000000000000000000
0000000000000000000000000000000000000000111111111111111111111111111111
1100000000000000000000000000000000000000000000000000000000000000000000
1111111111111111111111111111111100000000000000000000000000000000000000
0000000000000000000000000000001111111111111111111111111111111110000000
0000000000000000000000000000000000000000000000000000000000011111111111
1111111111111111111111100000000000000000000000000000000000000000000000
0000000000000000000111111111111111111111111111111111100000000000000000
0000000000000000000000000000000000000000000000000111111111111111111111
1111111111111000000000000000000000000000000000000000000000000000000000
0000000001111111111111111111111111111111111000000000000000000000000000
0000000000000000000000000000000000000001111111111111111111111111111111
1110000000000000000000000000000000000000000000000000000000000000000001
1111111111111111111111111111111111000000000000000000000000000000000000
0000000000000000000000000000011111111111111111111111111111111110000000
0000000000000000000000000000000000000000000000000000000000111111111111
1111111111111111111111110000000000000000000000000000000000000000000000
0000000000000000000111111111111111111111111111111111100000000000000000
0000000000000000000000000000000000000000000000001111111111111111111111
1111111111111000000000000000000000000000000000000000000000000000000000
0000000001111111111111111111111111111111111100000000000000000000000000
0000000000000000000000000000000000000001111111111111111111111111111111
1110000000000000000000000000000000000000000000000000000000000000000001
1111111111111111111111111111111110000000000000000000000000000000000000
0000000000000000000000000000011111111111111111111111111111111110000000
0000000000000000000000000000000000000000000000000000000000011111111111
1111111111111111111111100000000000000000000000000000000000000000000000
0000000000000000000011111111111111111111111111111111100000000000000000
0000000000000000000000000000000000000000000000000011111111111111111111
1111111111111000000000000000000000000000000000000000000000000000000000
0000000000111111111111111111111111111111110000000000000000000000000000
0000000000000000000000000000000000000000011111111111111111111111111111
1100000000000000000000000000000000000000000000000000000000000000000000
0111111111111111111111111111111100000000000000000000000000000000000000
0000000000000000000000000000000011111111111111111111111111111100000000
0000000000000000000000000000000000000000000000000000000000000011111111
1111111111111111111111000000000000000000000000000000000000000000000000
0000000000000000000000011111111111111111111111111111000000000000000000
0000000000000000000000000000000000000000000000000000011111111111111111
1111111111110000000000000000000000000000000000000000000000000000000000
0000000000000011111111111111111111111111110000000000000000000000000000
0000000000000000000000000000000000000000000001111111111111111111111111
1100000000000000000000000000000000000000000000000000000000000000000000
0000001111111111111111111111111100000000000000000000000000000000000000
0000000000000000000000000000000000001111111111111111111111111110000000
0000000000000000000000000000000000000000000000000000000000000000000111
1111111111111111111111100000000000000000000000000000000000000000000000
0000000000000000000000000000111111111111111111111111100000000000000000
0000000000000000000000000000000000000000000000000000000000011111111111
1111111111111100000000000000000000000000000000000000000000000000000000
0000000000000000000011111111111111111111111100000000000000000000000000
0000000000000000000000000000000000000000000000000001111111111111111111
1111100000000000000000000000000000000000000000000000000000000000000000
0000000000001111111111111111111111110000000000000000000000000000000000
0000000000000000000000000000000000000000000111111111111111111111111000
0000000000000000000000000000000000000000000000000000000000000000000000
0001111111111111111111111111000000000000000000000000000000000000000000
0000000000000000000000000000000000011111111111111111111111100000000000
0000000000000000000000000000000000000000000000000000000000000000011111
1111111111111111111000000000000000000000000000000000000000000000000000
0000000000000000000000000001111111111111111111111100000000000000000000
0000000000000000000000000000000000000000000000000000000001111111111111
1111111111110000000000000000000000000000000000000000000000000000000000
0000000000000000000111111111111111111111110000000000000000000000000000
0000000000000000000000000000000000000000000000000111111111111111111111
1111000000000000000000000000000000000000000000000000000000000000000000
0000000000011111111111111111111111000000000000000000000000000000000000
0000000000000000000000000000000000000000011111111111111111111111110000
0000000000000000000000000000000000000000000000000000000000000000000000
0001111111111111111111111100000000000000000000000000000000000000000000
0000000000000000000000000000000000000000000001000000000000000000000000
0000000000000000000000000000000000000000000000000000000000000000000000
0000001000000000000000000000000000000000000000000000000000000000000000
0000000000000000000000000000000000000100000000000000000000000000000000
0000000000000000000000000000000000000000000000000000000000000000000010
0000000000000000000000000000000000000000000000000000000000000000000000
0000000000000000000000000000010000000000000000000000000000000000000000
0000000000000000000000000000000000000000000000000000000000001000000000
0000000000000000000000000000000000000000000000000000000000000000000000
0000000000000000000001000000000000000000000000000000000000000000000000
0000000000000000000000000000000000000000000000000000100000000000000000
0000000000000000000000000000000000000000000000000000000000000000000000
0000000000000100000000000000000000000000000000000000000000000000000000
0000000000000000000000000000000001111111111111111111111100000000000000
0000000000000000000000000000000000000000000000000000000000000001111111
1111111111111111110000000000000000000000000000000000000000000000000000
0000000000000000000000000111111111111111111111110000000000000000000000
0000000000000000000000000000000000000000000000000000000111111111111111
1111111111000000000000000000000000000000000000000000000000000000000000
0000000000000000011111111111111111111111000000000000000000000000000000
0000000000000000000000000000000000000000000000011111111111111111111111
1100000000000000000000000000000000000000000000000000000000000000000000
0000000001111111111111111111111100000000000000000000000000000000000000
0000000000000000000000000000000000000001111111111111111111111111000000
0000000000000000000000000000000000000000000000000000000000000000000000
0111111111111111111111110000000000000000000000000000000000000000000000
0000000000000000000000000000000111111111111111111111111100000000000000
0000000000000000000000000000000000000000000000000000000000000001111111
1111111111111111000000000000000000000000000000000000000000000000000000
0000000000000000000000011111111111111111111111110000000000000000000000
0000000000000000000000000000000000000000000000000000000111111111111111
1111111100000000000000000000000000000000000000000000000000000000000000
0000000000000001111111111111111111111111000000000000000000000000000000
0000000000000000000000000000000000000000000000011111111111111111111111
0000000000000000000000000000000000000000000000000000000000000000000000
0000000111111111111111111111111100000000000000000000000000000000000000
0000000000000000000000000000000000000001111111111111111111111100000000
0000000000000000000000000000000000000000000000000000000000000000000001
1111111111111111111111110000000000000000000000000000000000000000000000
0000000000000000000000000000000111111111111111111111110000000000000000
0000000000000000000000000000000000000000000000000000000000000111111111
1111111111111111000000000000000000000000000000000000000000000000000000
0000000000000000000000011111111111111111111111000000000000000000000000
0000000000000000000000000000000000000000000000000000011111111111111111
1111111100000000000000000000000000000000000000000000000000000000000000
0000000000000001111111111111111111111100000000000000000000000000000000
0000000000000000000000000000000000000000000001111111111111111111111111
0000000000000000000000000000000000000000000000000000000000000000000000
0000000111111111111111111111110000000000000000000000000000000000000000
0000000000000000000000000000000000000111111111111111111111111100000000
0000000000000000000000000000000000000000000000000000000000000000000000
00000000000000000000000000000000000000000000000000000000000000